<?xml version="1.0" encoding="UTF-8"?>
<svg version="1.1" xmlns="http://www.w3.org/2000/svg" width="570" height="321">
<path d="M0 0 C188.1 0 376.2 0 570 0 C570 105.93 570 211.86 570 321 C381.9 321 193.8 321 0 321 C0 215.07 0 109.14 0 0 Z " fill="#E8EDF0" transform="translate(0,0)"/>
<path d="M0 0 C1.08574617 -0.0083016 1.08574617 -0.0083016 2.19342661 -0.0167709 C4.60176066 -0.03030746 7.00904567 -0.01544734 9.4173584 -0.00050354 C11.15085793 -0.00428928 12.88435444 -0.00979142 14.61784363 -0.01687622 C19.31415949 -0.03081485 24.01010833 -0.01967224 28.70640373 -0.00316501 C33.62653756 0.01070711 38.54665054 0.00422295 43.46679688 0.0007019 C51.72853494 -0.00199851 59.99012759 0.01146086 68.25183105 0.03465271 C77.79664035 0.06126136 87.34120653 0.06300889 96.88604021 0.05126435 C106.07670221 0.04047634 115.26727648 0.04668168 124.45793152 0.06081963 C128.36527079 0.06657054 132.27254567 0.06650378 136.17988586 0.06175423 C140.78301659 0.05697364 145.38588191 0.06713089 149.98896217 0.08870888 C151.67597878 0.09426219 153.36302096 0.09475543 155.05003929 0.08975601 C157.35746357 0.08377676 159.66408357 0.09635794 161.97143555 0.11352539 C163.26115013 0.11595529 164.55086472 0.11838518 165.87966156 0.12088871 C172.58419609 0.82798991 177.00619897 3.38175539 181.48571777 8.50120544 C183.76237256 11.91618762 183.74334107 13.14716825 183.76660156 17.16104126 C183.77802185 18.33999969 183.78944214 19.51895813 183.8012085 20.73364258 C183.80456207 22.6762925 183.80456207 22.6762925 183.8079834 24.65818787 C183.81724143 26.03480053 183.82729098 27.41140807 183.83807373 28.78800964 C183.86431544 32.52998339 183.87721101 36.27188537 183.88609505 40.01393676 C183.89195931 42.35329829 183.90016958 44.69264027 183.90910339 47.03199196 C183.93645552 54.35546311 183.95578607 61.67888951 183.96350718 69.00240821 C183.97246089 77.44822581 184.0075193 85.89339478 184.06550837 94.33901519 C184.10880026 100.87164412 184.12891889 107.404091 184.13158941 113.93686181 C184.13368199 117.83630676 184.14541859 121.73514212 184.18122864 125.63443565 C184.21429167 129.30615333 184.21845469 132.97680672 184.20095062 136.64862061 C184.19868582 138.62953456 184.22604759 140.61041395 184.25445557 142.59112549 C184.19261158 149.21542192 183.6704852 153.70692079 179.45674896 158.94353199 C174.35699173 162.97378605 169.2885239 163.87698029 162.93347168 163.8888855 C161.84160018 163.8969638 161.84160018 163.8969638 160.72767067 163.90520531 C158.30569835 163.91943247 155.88427663 163.91239445 153.46228027 163.90525818 C151.71892866 163.91096445 149.97558078 163.9179297 148.23223877 163.92605591 C143.50913936 163.94397256 138.78622589 163.94282193 134.06310272 163.93711352 C130.11669646 163.93402 126.17032583 163.94011584 122.22392464 163.94615227 C112.91337232 163.96019053 103.60291177 163.95864158 94.2923584 163.94725037 C84.69298509 163.93576521 75.09389104 163.94985311 65.49455452 163.97664684 C57.24551999 163.99880795 48.99657309 164.00544042 40.74751091 163.99957043 C35.82385442 163.9962012 30.90037701 163.99861393 25.97674561 164.01582146 C21.347312 164.03129542 16.71829211 164.02733007 12.08887482 164.00851631 C10.39217457 164.00483191 8.69544363 164.00793458 6.99877167 164.0184021 C4.67802726 164.03162438 2.35865013 164.02005527 0.03796387 164.00241089 C-1.25912506 164.0022016 -2.55621399 164.00199232 -3.89260864 164.0017767 C-9.20584657 163.26740511 -14.01578634 160.92886875 -17.41134644 156.60289001 C-20.86208902 151.25758768 -20.20971449 145.01379584 -20.16125488 138.87425232 C-20.16803809 137.49542082 -20.17694517 136.11659839 -20.18780518 134.73779297 C-20.21052235 131.00828988 -20.20179424 127.27948142 -20.18590975 123.54996681 C-20.17321106 119.63879715 -20.18500184 115.72768517 -20.19284058 111.81651306 C-20.20192566 105.2495511 -20.18997943 98.68287071 -20.1661377 92.11595154 C-20.13892834 84.53412228 -20.14774333 76.95296538 -20.17526972 69.3711524 C-20.19799256 62.85030299 -20.20114546 56.32965547 -20.18807638 49.80877924 C-20.18029919 45.91906883 -20.17919212 42.029674 -20.19575882 38.13998413 C-20.21025096 34.48217384 -20.20009713 30.82522657 -20.17128754 27.16750908 C-20.16157139 25.19249519 -20.1763365 23.21740791 -20.19192505 21.24243164 C-20.12144692 15.31439057 -20.01348404 10.71467115 -16.26888084 5.94400787 C-10.91591539 1.54227663 -6.93904062 0.00112601 0 0 Z " fill="#E8EDF0" transform="translate(204.5142822265625,78.49879455566406)"/>
<path d="M0 0 C1.08574617 -0.0083016 1.08574617 -0.0083016 2.19342661 -0.0167709 C4.60176066 -0.03030746 7.00904567 -0.01544734 9.4173584 -0.00050354 C11.15085793 -0.00428928 12.88435444 -0.00979142 14.61784363 -0.01687622 C19.31415949 -0.03081485 24.01010833 -0.01967224 28.70640373 -0.00316501 C33.62653756 0.01070711 38.54665054 0.00422295 43.46679688 0.0007019 C51.72853494 -0.00199851 59.99012759 0.01146086 68.25183105 0.03465271 C77.79664035 0.06126136 87.34120653 0.06300889 96.88604021 0.05126435 C106.07670221 0.04047634 115.26727648 0.04668168 124.45793152 0.06081963 C128.36527079 0.06657054 132.27254567 0.06650378 136.17988586 0.06175423 C140.78301659 0.05697364 145.38588191 0.06713089 149.98896217 0.08870888 C151.67597878 0.09426219 153.36302096 0.09475543 155.05003929 0.08975601 C157.35746357 0.08377676 159.66408357 0.09635794 161.97143555 0.11352539 C163.26115013 0.11595529 164.55086472 0.11838518 165.87966156 0.12088871 C172.58419609 0.82798991 177.00619897 3.38175539 181.48571777 8.50120544 C183.76237256 11.91618762 183.74334107 13.14716825 183.76660156 17.16104126 C183.77802185 18.33999969 183.78944214 19.51895813 183.8012085 20.73364258 C183.80456207 22.6762925 183.80456207 22.6762925 183.8079834 24.65818787 C183.81724143 26.03480053 183.82729098 27.41140807 183.83807373 28.78800964 C183.86431544 32.52998339 183.87721101 36.27188537 183.88609505 40.01393676 C183.89195931 42.35329829 183.90016958 44.69264027 183.90910339 47.03199196 C183.93645552 54.35546311 183.95578607 61.67888951 183.96350718 69.00240821 C183.97246089 77.44822581 184.0075193 85.89339478 184.06550837 94.33901519 C184.10880026 100.87164412 184.12891889 107.404091 184.13158941 113.93686181 C184.13368199 117.83630676 184.14541859 121.73514212 184.18122864 125.63443565 C184.21429167 129.30615333 184.21845469 132.97680672 184.20095062 136.64862061 C184.19868582 138.62953456 184.22604759 140.61041395 184.25445557 142.59112549 C184.19261158 149.21542192 183.6704852 153.70692079 179.45674896 158.94353199 C174.35699173 162.97378605 169.2885239 163.87698029 162.93347168 163.8888855 C161.84160018 163.8969638 161.84160018 163.8969638 160.72767067 163.90520531 C158.30569835 163.91943247 155.88427663 163.91239445 153.46228027 163.90525818 C151.71892866 163.91096445 149.97558078 163.9179297 148.23223877 163.92605591 C143.50913936 163.94397256 138.78622589 163.94282193 134.06310272 163.93711352 C130.11669646 163.93402 126.17032583 163.94011584 122.22392464 163.94615227 C112.91337232 163.96019053 103.60291177 163.95864158 94.2923584 163.94725037 C84.69298509 163.93576521 75.09389104 163.94985311 65.49455452 163.97664684 C57.24551999 163.99880795 48.99657309 164.00544042 40.74751091 163.99957043 C35.82385442 163.9962012 30.90037701 163.99861393 25.97674561 164.01582146 C21.347312 164.03129542 16.71829211 164.02733007 12.08887482 164.00851631 C10.39217457 164.00483191 8.69544363 164.00793458 6.99877167 164.0184021 C4.67802726 164.03162438 2.35865013 164.02005527 0.03796387 164.00241089 C-1.25912506 164.0022016 -2.55621399 164.00199232 -3.89260864 164.0017767 C-9.20584657 163.26740511 -14.01578634 160.92886875 -17.41134644 156.60289001 C-20.86208902 151.25758768 -20.20971449 145.01379584 -20.16125488 138.87425232 C-20.16803809 137.49542082 -20.17694517 136.11659839 -20.18780518 134.73779297 C-20.21052235 131.00828988 -20.20179424 127.27948142 -20.18590975 123.54996681 C-20.17321106 119.63879715 -20.18500184 115.72768517 -20.19284058 111.81651306 C-20.20192566 105.2495511 -20.18997943 98.68287071 -20.1661377 92.11595154 C-20.13892834 84.53412228 -20.14774333 76.95296538 -20.17526972 69.3711524 C-20.19799256 62.85030299 -20.20114546 56.32965547 -20.18807638 49.80877924 C-20.18029919 45.91906883 -20.17919212 42.029674 -20.19575882 38.13998413 C-20.21025096 34.48217384 -20.20009713 30.82522657 -20.17128754 27.16750908 C-20.16157139 25.19249519 -20.1763365 23.21740791 -20.19192505 21.24243164 C-20.12144692 15.31439057 -20.01348404 10.71467115 -16.26888084 5.94400787 C-10.91591539 1.54227663 -6.93904062 0.00112601 0 0 Z M-6.51428223 15.50120544 C-6.51428223 59.39120544 -6.51428223 103.28120544 -6.51428223 148.50120544 C-3.5823911 149.96715101 -0.99438828 149.63060126 2.28051758 149.63491821 C3.34064599 149.63831655 3.34064599 149.63831655 4.42219114 149.64178354 C6.80210703 149.64813871 9.18196619 149.64729321 11.56188965 149.64646912 C13.26335219 149.64945962 14.96481406 149.6528619 16.66627502 149.65664673 C21.29631212 149.665501 25.92633076 149.66782541 30.5563755 149.66846251 C34.41600411 149.66941032 38.27562839 149.67308704 42.13525534 149.67663461 C51.23694165 149.68478426 60.33861807 149.68721834 69.44030762 149.68650818 C78.84362182 149.68590694 88.24687874 149.69646682 97.65017843 149.71225184 C105.71218179 149.72530529 113.77416636 149.73069302 121.83618021 149.73005277 C126.65630511 149.72979717 131.47637911 149.73268214 136.29649353 149.74323082 C140.82724102 149.75287521 145.35788855 149.75301631 149.88863945 149.74571419 C151.55518679 149.74466383 153.22174024 149.74705774 154.88827705 149.75307465 C157.15594356 149.76073417 159.4232596 149.7561904 161.69091797 149.7484436 C162.96223824 149.74898837 164.2335585 149.74953314 165.54340363 149.75009441 C168.60745133 149.80946488 168.60745133 149.80946488 170.48571777 147.50120544 C170.7902388 145.11544696 170.7902388 145.11544696 170.73968506 142.30088806 C170.74532471 141.19877487 170.75096436 140.09666168 170.7567749 138.96115112 C170.75272644 137.74653702 170.74867798 136.53192291 170.74450684 135.28050232 C170.74801147 134.00570511 170.75151611 132.7309079 170.75512695 131.41748047 C170.76426372 127.91547171 170.76070146 124.41358047 170.75436878 120.9115696 C170.74931542 117.25162558 170.75399838 113.59169183 170.75714111 109.93174744 C170.7607827 103.78479704 170.75597663 97.63789465 170.74645996 91.49095154 C170.73557502 84.37794824 170.73910046 77.26505959 170.75011277 70.15205908 C170.75918018 64.05181568 170.76047361 57.95160685 170.75523543 51.85135889 C170.75211271 48.20495378 170.75171463 44.5586026 170.75830841 40.91220093 C170.76514277 36.84870074 170.75567808 32.7853991 170.74450684 28.72190857 C170.75057953 26.89998741 170.75057953 26.89998741 170.7567749 25.04125977 C170.74831543 23.38808998 170.74831543 23.38808998 170.73968506 21.70152283 C170.73893101 20.739925 170.73817696 19.77832718 170.73740005 18.78759003 C170.70521835 16.30371192 170.70521835 16.30371192 168.48571777 14.50120544 C165.39574451 14.19798554 165.39574451 14.19798554 161.69091797 14.25396729 C160.98416569 14.25155287 160.27741342 14.24913845 159.5492444 14.24665087 C157.16925232 14.24099274 154.78952613 14.24969278 152.4095459 14.25828552 C150.70808336 14.25721316 149.00662119 14.25527517 147.30516052 14.25253296 C142.67509117 14.24767409 138.04511779 14.25535326 133.41506004 14.265486 C128.57797728 14.27424971 123.74089768 14.27250938 118.90380859 14.27212524 C110.77956531 14.27306266 102.6553593 14.28175701 94.53112793 14.2953949 C85.12782811 14.31112123 75.72456914 14.31639304 66.32125711 14.31565934 C57.28919309 14.3150497 48.25714242 14.32014936 39.2250824 14.32845116 C35.37503454 14.33198878 31.52499142 14.33381509 27.67494202 14.33434486 C23.14421141 14.33534696 18.61351532 14.34143261 14.0827961 14.351511 C12.41625238 14.35444014 10.74970469 14.35566054 9.08315849 14.35508347 C6.81557442 14.35459527 4.54808808 14.36022378 2.28051758 14.36749268 C1.00919731 14.36916852 -0.26212296 14.37084436 -1.57196808 14.37257099 C-4.44757131 14.2979663 -4.44757131 14.2979663 -6.51428223 15.50120544 Z " fill="#BABEC1" transform="translate(204.5142822265625,78.49879455566406)"/>
<path d="M0 0 C8.32474295 3.82673648 15.10820765 10.942406 21.81884766 17.03125 C23.73673848 18.72837411 25.69775948 20.37825485 27.70263672 21.97167969 C35.92520902 28.544785 38.77382098 33.41829618 45 43 C45 58.84 45 74.68 45 91 C-4.17 91 -53.34 91 -104 91 C-104 70 -104 70 -100.97070312 64.58666992 C-98.96862793 62.58940125 -98.96862793 62.58940125 -96.78125 60.73046875 C-96.04878052 60.02771317 -95.31631104 59.32495758 -94.56164551 58.60090637 C-92.25279435 56.40793122 -89.88228924 54.30016468 -87.5 52.1875 C-85.90538788 50.69844945 -84.31549189 49.20433161 -82.73046875 47.70507812 C-78.87271596 44.07653156 -74.9615765 40.51472665 -71 37 C-68.09380865 38.39596486 -66.02878234 39.73064201 -63.765625 42.0390625 C-63.19199219 42.61914062 -62.61835938 43.19921875 -62.02734375 43.796875 C-61.44082031 44.40015625 -60.85429687 45.0034375 -60.25 45.625 C-59.64800781 46.23601562 -59.04601562 46.84703125 -58.42578125 47.4765625 C-56.94594695 48.97988624 -55.47235324 50.48934856 -54 52 C-50.21698773 50.43056316 -47.82743453 48.06898723 -44.95605469 45.18310547 C-44.46779205 44.69513489 -43.97952942 44.20716431 -43.47647095 43.70440674 C-41.87015038 42.09669725 -40.27102287 40.48202899 -38.671875 38.8671875 C-37.55701683 37.74859765 -36.44171513 36.63044971 -35.32598877 35.51272583 C-32.39529391 32.57440675 -29.47065578 29.63013045 -26.54724121 26.68457031 C-23.56117275 23.67801738 -20.56941141 20.67714118 -17.578125 17.67578125 C-11.71316544 11.78939314 -5.85459268 5.896699 0 0 Z " fill="#BABEC1" transform="translate(316,124)"/>
<path d="M0 0 C6.01687046 3.29224988 9.65598842 6.45666285 12.3125 12.8125 C13.30257693 19.42836293 13.64976426 25.92269509 9.5625 31.5 C5.96370433 35.5986284 1.52536541 39.39811032 -4.01953125 40.11328125 C-11.09565037 40.14671173 -15.33994646 38.91445222 -21.375 35.125 C-25.83712354 30.66287646 -27.91298028 26.08167987 -28.125 19.75 C-27.85518239 13.88596384 -26.22962617 9.65448404 -22.4375 5.125 C-15.03748626 -1.09773882 -9.34014304 -3.00784267 0 0 Z " fill="#BABEC1" transform="translate(239.6875,107.1875)"/>
</svg>
